<svg width="25" height="24" viewBox="0 0 25 24" fill="none" xmlns="http://www.w3.org/2000/svg">
<path d="M12.5 4.75C16.5041 4.75 19.75 7.99594 19.75 12C19.75 16.0041 16.5041 19.25 12.5 19.25C8.49594 19.25 5.25 16.0041 5.25 12C5.25 11.7144 5.26652 11.4326 5.29864 11.1556C5.36674 10.5685 4.94068 10 4.3496 10C3.83398 10 3.38069 10.3581 3.31834 10.8699C3.27322 11.2403 3.25 11.6174 3.25 12C3.25 17.1086 7.39137 21.25 12.5 21.25C17.6086 21.25 21.75 17.1086 21.75 12C21.75 6.89137 17.6086 2.75 12.5 2.75C10.3269 2.75 8.32875 3.49939 6.75 4.75385V4.25C6.75 3.69772 6.30228 3.25 5.75 3.25C5.19772 3.25 4.75 3.69772 4.75 4.25V6.94829C4.73877 6.96549 4.72759 6.98272 4.71647 7H4.75V7.25C4.75 7.80228 5.19772 8.25 5.75 8.25H8.75C9.30228 8.25 9.75 7.80228 9.75 7.25C9.75 6.69772 9.30228 6.25 8.75 6.25H8.08352C9.30642 5.30932 10.8379 4.75 12.5 4.75Z" fill="#BF5BE2"/>
</svg>
