<svg width="32" height="32" viewBox="0 0 32 32" fill="none" xmlns="http://www.w3.org/2000/svg">
<path d="M27.88 14.8267V8.97333C27.88 7.88 27.0533 6.64 26.0267 6.22667L18.6 3.18667C16.9333 2.50667 15.0533 2.50667 13.3867 3.18667L5.95999 6.22667C4.94666 6.64 4.12 7.88 4.12 8.97333V14.8267C4.12 21.3467 8.85333 27.4533 15.32 29.24C15.76 29.36 16.24 29.36 16.68 29.24C23.1467 27.4533 27.88 21.3467 27.88 14.8267ZM17 17.16V20.6667C17 21.2133 16.5467 21.6667 16 21.6667C15.4533 21.6667 15 21.2133 15 20.6667V17.16C13.6533 16.7333 12.6667 15.48 12.6667 14C12.6667 12.16 14.16 10.6667 16 10.6667C17.84 10.6667 19.3333 12.16 19.3333 14C19.3333 15.4933 18.3467 16.7333 17 17.16Z" fill="white"/>
</svg>
