<svg width="20" height="20" viewBox="0 0 20 20" fill="none" xmlns="http://www.w3.org/2000/svg">
<path d="M9.99996 1.66666C14.6023 1.66666 18.3333 5.39762 18.3333 9.99999C18.3333 14.6024 14.6023 18.3333 9.99996 18.3333C5.39759 18.3333 1.66663 14.6024 1.66663 9.99999C1.66663 5.39762 5.39759 1.66666 9.99996 1.66666ZM6.45829 9.37499C6.11311 9.37499 5.83329 9.65481 5.83329 9.99999C5.83329 10.3164 6.06842 10.5779 6.37348 10.6193L6.45829 10.625C11.0089 10.625 9.37766 10.625 13.5416 10.625C13.8868 10.625 14.1666 10.3452 14.1666 9.99999C14.1666 9.68358 13.9315 9.42208 13.6264 9.38069L13.5416 9.37499C9.21281 9.37499 11.2029 9.37499 6.45829 9.37499Z" fill="#EEA925"/>
</svg>
